<?xml version="1.0" encoding="UTF-8"?>
<svg id="Calque_1" data-name="Calque 1" xmlns="http://www.w3.org/2000/svg" viewBox="0 0 71.53 27.16">
  <defs>
    <style>
      .cls-1 {
        fill: #fff;
        stroke-width: 0px;
      }
    </style>
  </defs>
  <path class="cls-1" d="m13.92,6.91v14.46h-2.65v-7.24c-.01-2.37-1.92-4.26-4.31-4.26s-4.29,1.89-4.29,4.26v7.24H0V6.91C0,3.11,3.13,0,6.96,0s6.96,3.11,6.96,6.91Zm-11.25,0v1.8c1.19-.94,2.68-1.49,4.29-1.49s3.12.56,4.31,1.49v-1.8c0-2.37-1.92-4.28-4.31-4.28s-4.29,1.9-4.29,4.28Z"/>
  <path class="cls-1" d="m18.34,7.41v1.54c1.2-.95,2.71-1.54,4.37-1.54s3.27.62,4.48,1.64l-1.89,1.89c-.72-.54-1.61-.86-2.59-.86-2.4,0-4.31,1.92-4.31,4.31h-.06v6.99h-2.67V7.41h2.67Z"/>
  <path class="cls-1" d="m41.7,14.33v5.84c0,3.84-3.15,6.99-6.99,6.99-1.7,0-3.27-.63-4.48-1.66l1.89-1.88c.72.54,1.61.85,2.59.85,2.4,0,4.31-1.9,4.31-4.31v-.37c-1.19.94-2.68,1.51-4.31,1.51-3.84,0-6.97-3.15-6.97-6.99s3.13-6.97,6.97-6.97,6.99,3.13,6.99,6.97Zm-11.53.03c0,2.4,1.92,4.32,4.31,4.32s4.31-1.92,4.31-4.32-1.9-4.31-4.31-4.31-4.31,1.92-4.31,4.31Z"/>
  <path class="cls-1" d="m56.98,14.4c0,3.84-3.15,6.97-6.99,6.97s-6.97-3.13-6.97-6.97,3.13-6.99,6.97-6.99,6.99,3.15,6.99,6.99Zm-11.25-.01c0,2.4,1.92,4.32,4.31,4.32s4.31-1.92,4.31-4.32-1.9-4.31-4.31-4.31-4.31,1.92-4.31,4.31Z"/>
  <path class="cls-1" d="m65.22,7.43c.09.01.19.01.29.03h.01c.19.01.38.03.57.07h.01c.06,0,.1.01.16.03.03,0,.06,0,.09.01.01,0,.03,0,.04.01h.03s.06.01.1.01c.01.01.04.01.06.03.03,0,.04,0,.07.01h.03s.01.01.03.01h.03s.04.01.07.03c.04.01.09.01.12.03t.03.01h.04s.04.03.07.03c.01.01.03.01.04.01.06.01.1.03.15.06h.01c.06.01.1.04.16.06h.01s.07.03.1.04c0,0,.01,0,.01.01h.01s.03.01.04.01c.04.03.07.04.12.06.01,0,.03.01.03.01.03,0,.04.01.06.03h.01s.04.01.06.03c.01,0,.01.01.03.01.04.01.1.04.15.07.01,0,.03.01.04.01.09.06.18.1.28.16h-.01s.04.01.06.01c1.45.86,2.48,2.17,3,3.65l-2.56.69c-.37-.83-.98-1.55-1.83-2.05-.01-.01-.04-.01-.06-.03s-.03-.01-.04-.03c-.03-.01-.06-.03-.07-.04l-.09-.04s-.06-.03-.1-.04c-.01,0-.03-.01-.06-.03-.01,0-.04-.01-.06-.01-.04-.03-.09-.04-.12-.06-.03,0-.04-.01-.07-.01l-.09-.04s-.03-.01-.04-.01c-.04-.01-.09-.03-.13-.03-.01-.01-.03-.01-.06-.03h-.01c-.06-.01-.1-.03-.16-.04-.03,0-.04,0-.07-.01-.04-.01-.09-.01-.13-.03h-.06s-.1-.03-.16-.03h-.03c-.06-.01-.12-.01-.18-.03h-.21s-.04-.01-.07-.01h-.19s-.09.01-.13.01h-.1s-.09.01-.13.01h-.01s-.04.01-.07.01-.07.01-.1.01-.06.01-.09.01c-.04,0-.07.01-.1.01-.03.01-.06.01-.09.03-.03,0-.07.01-.1.01-.03.01-.06.01-.07.03-.06.01-.12.03-.16.04h-.01s-.03.01-.06.01c-.04.01-.07.03-.12.04-.03.01-.04.03-.07.03-.03.01-.07.03-.1.04s-.06.01-.07.03c-.04.01-.07.03-.12.06-.01,0-.03.01-.06.03-.06.01-.1.04-.16.07l-.03.03s-.09.04-.13.07c-.03.01-.04.03-.06.03-.04.03-.07.04-.1.07-.03.01-.04.03-.06.04-.04.01-.07.04-.12.07l-.04.04s-.1.07-.15.12c-.01,0-.01.01-.03.01-.03.03-.06.06-.1.09l7.1,4.1,2.39,1.38c-.03.06-.04.1-.06.15h0c-.01.06-.04.1-.06.16h0c-.03.06-.04.1-.06.15t-.01.03s-.04.09-.06.13c0,.01-.01.01-.01.03-.01.04-.03.07-.06.12,0,.01-.01.04-.03.06l-.04.09s-.03.07-.06.12c0,.01-.01.03-.01.04-.03.04-.06.1-.09.15-.03.06-.06.1-.09.15-.01.03-.03.04-.03.06-.03.03-.04.06-.06.09-.03.03-.04.07-.07.1,0,.01-.01.03-.03.04-.01.03-.04.07-.07.1,0,.01-.01.03-.01.03-.03.04-.06.09-.09.12,0,.01-.01.01-.01.01l-.31.4c-1.33,1.52-3.27,2.37-5.24,2.39h-.29c-.06-.01-.1-.01-.15-.01s-.09,0-.13-.01h-.13s-.03,0-.04-.01h-.1s-.03-.01-.06-.01h-.07s-.04-.01-.07-.01c-.01,0-.04-.01-.06-.01-.03,0-.06,0-.09-.01h-.06s-.06-.01-.1-.03h-.01s-.09-.01-.13-.03c-.04,0-.1-.01-.15-.03-.63-.15-1.26-.4-1.86-.75-.01,0-.04-.01-.06-.03h.03c-1.46-.83-2.49-2.15-3.03-3.63l2.58-.69c.35.83.97,1.55,1.82,2.05.32.18.64.31.98.41.04.01.1.03.15.04h.01s.09.03.13.03c.01,0,.03.01.04.01.03,0,.07.01.1.01.01,0,.04.01.06.01.03,0,.07,0,.1.01h.07s.06.01.09.01.06.01.09.01h.22s.07.01.12.01h.04s.09-.01.13-.01h.16s.03,0,.04-.01h.13c.86-.12,1.7-.48,2.36-1.08l-7.1-4.1-2.37-1.38c.15-.41.32-.82.56-1.22,1.29-2.24,3.65-3.49,6.06-3.49h.26Z"/>
</svg>